<svg xmlns="http://www.w3.org/2000/svg" viewBox="0 0 264.09 264.09">
    <defs>
        <style>.cls-1{fill:#fff;}</style>
    </defs>
    <g id="레이어_2" data-name="레이어 2">
        <g id="레이어_1-2" data-name="레이어 1">
            <path class="cls-1"
                  d="M37.88,0H0V98.45a25.88,25.88,0,0,0,25.88,25.88h98.45V86.45A86.44,86.44,0,0,0,37.88,0Z"/>
            <path class="cls-1"
                  d="M226.21,0a86.44,86.44,0,0,0-86.45,86.45v37.88h98.45a25.88,25.88,0,0,0,25.88-25.88V0Z"/>
            <path class="cls-1"
                  d="M0,165.64v98.45H37.88a86.44,86.44,0,0,0,86.45-86.45V139.76H25.88A25.88,25.88,0,0,0,0,165.64Z"/>
            <path class="cls-1"
                  d="M238.21,139.76H139.76v37.88a86.44,86.44,0,0,0,86.45,86.45h37.88V165.64A25.88,25.88,0,0,0,238.21,139.76Zm13.54,112H226.21a74.2,74.2,0,0,1-74.11-74.11V152.1h86.11a13.56,13.56,0,0,1,13.54,13.54Z"/>
        </g>
    </g>
</svg>